<svg id="Isolation_Mode" xmlns="http://www.w3.org/2000/svg" viewBox="0 0 273.7 71.6"><style>.st0{fill:#fff}.st1{fill:#1d3176}.st2{fill:#ffd600}.st3{fill:#e42313}</style><path class="st0" d="M32.6 71.6c-15 0-22.5-5.4-22.8-5.7l-.8-.5 5.1-9 .9.5c7 3.9 14.6 5 17.5 5 3 0 10.5-1 17.5-5l.9-.5 5.1 9-.7.5c-.2.3-7.7 5.7-22.7 5.7M24.3 55.5l4.7-6.7h7.1l4.7 6.7z"/><path class="st0" d="M32.6 52.1c-14.4 0-26-11.7-26-26 0-14.4 11.7-26 26-26 14.4 0 26 11.7 26 26s-11.7 26-26 26"/><path class="st0" d="M32.5 62.8c-8.2 0-16.1-2.9-22.2-8.3C4.4 49.4.7 42.5 0 35.4v-.3l7.2-13.7v4c0 16.4 10.4 27.8 25.3 27.8s25.3-11.4 25.3-27.8v-4L65 35.1v.3c-.7 7-4.4 14-10.2 19.1-6.1 5.4-14 8.3-22.2 8.3h-.1z"/><path class="st1" d="M57.6 26c0 13.8-11.2 25-25 25s-25-11.2-25-25 11.2-25 25-25 25 11.2 25 25"/><path class="st0" d="M56.9 26c0 13.4-10.9 24.3-24.3 24.3C19.1 50.4 8.2 39.5 8.2 26c0-13.4 10.9-24.3 24.3-24.3C46 1.7 56.9 12.6 56.9 26"/><path class="st1" d="M32.5 61.8c-17 0-30.2-12.6-31.5-26.5l5.2-9.9c0 16.3 10.5 28.8 26.3 28.8s26.3-12.5 26.3-28.8l5.2 9.9c-1.2 13.9-14.5 26.6-31.5 26.5zM32.3 1.6h.6v2.7h-.6zM34.5 6.5l.5.1.6-4.9h-.5zM30.6 6.5l-.5.1-.7-4.9.6-.1zM26.7 2.3l.6 2.7.6-.1-.7-2.7zM37.2 4.9l.6.1.6-2.7-.5-.1z"/><path transform="rotate(134.999 16.272 9.757)" class="st1" d="M16 8.4h.6v2.7H16z"/><path class="st1" d="M20.1 10.9l.5-.3-3.1-3.9-.4.3zM17.4 13.6l-.3.4-4-3 .4-.4zM11.6 13.4l2.4 1.5.3-.5-2.4-1.5zM20.9 7.8l.5-.3-1.5-2.4-.4.3zM8.2 25.8h2.7v.6H8.2zM13.1 24.1v-.5l-4.9-.7v.6zM13 28l.1.5-4.9.7-.1-.6zM8.8 31.9l2.7-.6-.1-.6-2.7.7zM11.4 21.4l.1-.6-2.7-.6-.1.5z"/><path transform="rotate(45.001 16.272 42.32)" class="st1" d="M16 40.9h.6v2.7H16z"/><path class="st1" d="M17.4 38.5l-.3-.5-3.9 3 .3.5zM20.1 41.2l.4.3-2.9 4-.5-.4zM19.9 47l1.5-2.4-.5-.3-1.5 2.4zM14.3 37.7l-.3-.5-2.4 1.5.3.4zM32.3 47.7h.6v2.7h-.6zM30.6 45.5h-.5l-.6 4.9h.5zM34.5 45.6l.5-.1.7 4.9h-.6zM38.4 49.8l-.6-2.7-.5.1.6 2.7zM27.9 47.2l-.6-.1-.6 2.7.5.1z"/><path transform="rotate(-45.001 48.834 42.322)" class="st1" d="M48.6 40.9h.6v2.7h-.6z"/><path class="st1" d="M45 41.2l-.4.3 3 3.9.4-.3zM47.7 38.5l.3-.5 4 3-.4.5zM53.5 38.7l-2.4-1.5-.3.5 2.4 1.4zM44.2 44.3l-.5.3 1.5 2.4.5-.3zM54.2 25.8h2.7v.6h-2.7zM52 27.9v.6l4.9.6v-.5zM52.1 24.1l-.1-.5 4.9-.7.1.6zM56.3 20.2l-2.7.6.1.5 2.7-.6zM53.7 30.7l-.1.6 2.7.6.1-.5z"/><path transform="rotate(-134.999 48.836 9.759)" class="st1" d="M48.6 8.4h.6v2.7h-.6z"/><path class="st1" d="M47.7 13.6l.3.4 3.9-3-.3-.4zM45 10.9l-.4-.4 2.9-3.9.5.4zM45.2 5.1l-1.5 2.3.5.3 1.5-2.3zM50.8 14.4l.3.5 2.4-1.5-.3-.5z"/><path class="st2" d="M46.4 26c0 7.7-6.2 13.9-13.9 13.9S18.7 33.7 18.7 26s6.2-13.9 13.9-13.9S46.4 18.4 46.4 26"/><path class="st1" d="M36.3 26c0 2.1-1.7 3.7-3.7 3.7-2.1 0-3.7-1.7-3.7-3.7 0-2.1 1.7-3.7 3.7-3.7s3.7 1.7 3.7 3.7"/><path class="st2" d="M35.6 26c0 1.7-1.4 3.1-3.1 3.1-1.7 0-3.1-1.4-3.1-3.1 0-1.7 1.4-3.1 3.1-3.1 1.7.1 3.1 1.5 3.1 3.1"/><path class="st1" d="M36.1 20.7l2.1-3.2c.1-.2.1-.4-.1-.5-1-.6-2-1-3.1-1.3-.2 0-.4.1-.4.3l-.7 3.7c0 .2.1.4.3.4.6.1 1.1.4 1.6.6 0 .2.2.2.3 0M38.8 24.8l3.7-.7c.2 0 .3-.2.3-.4-.3-1.1-.7-2.2-1.3-3.1-.1-.2-.3-.2-.5-.1l-3.2 2.1c-.2.1-.2.3-.1.5.3.5.5 1 .6 1.6.2 0 .4.1.5.1M37.9 29.6l3.2 2.1c.2.1.4.1.5-.1.6-1 1-2 1.3-3.1 0-.2-.1-.4-.3-.4l-3.7-.7c-.2 0-.4.1-.4.3-.1.6-.4 1.1-.6 1.6-.2 0-.2.2 0 .3M33.8 32.3l.7 3.7c0 .2.2.3.4.3 1.1-.3 2.2-.7 3.1-1.3.2-.1.2-.3.1-.5L36 31.3c-.1-.2-.3-.2-.5-.1-.5.3-1 .5-1.6.6 0 .2-.1.3-.1.5M29 31.4l-2.1 3.2c-.1.2-.1.4.1.5 1 .6 2 1 3.1 1.3.2 0 .4-.1.4-.3l.7-3.7c0-.2-.1-.4-.3-.4-.6-.1-1.1-.4-1.6-.6 0-.2-.2-.2-.3 0M26.3 27.3l-3.8.7c-.2 0-.3.2-.3.4.3 1.1.7 2.2 1.3 3.1.1.2.3.2.5.1l3.2-2.1c.2-.1.2-.3.1-.5-.3-.5-.5-1-.6-1.6-.1 0-.2-.1-.4-.1M27.2 22.5L24 20.4c-.2-.1-.4-.1-.5.1-.6 1-1 2-1.3 3.1 0 .2.1.4.3.4l3.7.7c.2 0 .4-.1.4-.3.1-.6.4-1.1.6-1.6.2 0 .2-.2 0-.3M31.3 19.8l-.7-3.8c0-.2-.2-.3-.4-.3-1.2.3-2.2.7-3.2 1.3-.2.1-.2.3-.1.5l2.1 3.2c.1.2.3.2.5.1.5-.3 1-.5 1.6-.6.1-.1.2-.3.2-.4"/><path class="st1" d="M32.6 11.7c-7.9 0-14.3 6.4-14.3 14.3s6.4 14.3 14.3 14.3S46.9 33.9 46.9 26s-6.4-14.3-14.3-14.3m0 27.8c-7.5 0-13.5-6-13.5-13.5s6-13.5 13.5-13.5 13.5 6 13.5 13.5S40 39.5 32.6 39.5"/><path class="st3" d="M41.7 4.6L32.6 9l-9.2-4.4 9.2 22.1z"/><path class="st3" d="M11.1 16.9l4.4 9.1-4.4 9.2L33.3 26z"/><path class="st3" d="M23.4 47.5l9.2-4.4 9.1 4.4-9.1-22.2z"/><path class="st3" d="M54 35.2L49.6 26l4.4-9.1L31.8 26z"/><path class="st2" d="M14 48.1l.9.9-2.1 4.9-.8-.8.5-1-1.5-1.4-1 .5-.7-.7 4.7-2.4zm-1.1 3.2l.9-2-2 1.1 1.1.9zM16.5 50.4l1.4.8-1 3.7 2.8-2.6 1.5.9-2.6 4.3-.9-.5 2.2-3.6-3.3 2.9-.8-.4 1.1-4.4-2.2 3.7-.9-.5zM21.9 53.5l1.6.6c1.2.4 1.7 1 1.4 1.9-.2.5-.6.8-1.1.8.6.4.8.9.6 1.5-.1.4-.4.6-.7.8-.5.2-1 .1-1.8-.2l-1.6-.6 1.6-4.8zm.2 4.5c.7.3 1 .3 1.2-.3.2-.6-.1-.8-.8-1l-.5-.2-.5 1.3.6.2zm.8-2c.6.2.9.2 1-.3.2-.5 0-.7-.6-.9l-.7-.2-.4 1.2.7.2zM27.1 55.1l-.5 3.1c-.1.7.2 1.2.9 1.3.7.1 1.1-.2 1.3-1l.5-3.1 1 .2-.5 3.1c-.2 1.3-1 1.9-2.5 1.6-1.5-.2-2-1-1.8-2.3l.5-3.1 1.1.2zM31.1 55.6h1.1v4.2h2.3v.8l-3.3.1zM36.5 55.3l1.3-.2 2.6 4.7-1.1.2-.5-1-2 .4-.2 1.1-1 .2.9-5.4zm1.8 2.9l-1.1-2-.4 2.2 1.5-.2zM39.8 54.7l1.4-.6 3.2 3.1-1.4-3.8.9-.3 1.8 4.7-1.4.5-3.3-3.2 1.5 3.9-.9.4zM49 56c-1.3.8-2.4.4-3.3-1-.9-1.4-.7-2.7.6-3.4 1.1-.6 2-.5 2.5.3l-.8.4c-.3-.4-.8-.5-1.3-.2-.7.4-.8 1.2-.1 2.2.7 1.1 1.3 1.4 2.1.9.5-.3.6-.8.4-1.2l.9-.5c.4 1 .1 1.8-1 2.5M48.6 50.2l2.5-2.2.5.6-1.7 1.5.8.9 1.6-1.4.5.7-1.6 1.3.9 1.1 1.8-1.5.5.6-2.6 2.2z"/><path class="st1" d="M37 51l-1.2 2.6c.9-.1 1.8-.3 2.7-.5 0 .1-1.5-2.1-1.5-2.1M32.6 50.8v3c.9 0 1.7 0 2.6-.1l1.4-3.2c-1.3.2-2.7.3-4 .3M32.6 50.8c-1.4 0-2.7-.1-4-.3l1.4 3.2c.9.1 1.7.1 2.6.1v-3zM28.1 51l1.2 2.6c-.9-.1-1.8-.3-2.7-.5 0 .1 1.5-2.1 1.5-2.1M32.5 62.8c-6.4 0-12.5-1.8-17.8-5.1 0 0-.1 0-.1-.1L10.4 65s7.4 5.5 22.2 5.5S54.8 65 54.8 65l-4.2-7.4s-.1 0-.1.1C45.2 61 39 62.8 32.7 62.8h-.2z"/><path class="st2" d="M16 65.3l.1-3.8.5.2-.1 3.2 2-2.4.5.1-2.5 2.9z"/><path transform="rotate(105.438 20.803 65.031)" class="st2" d="M19 64.8h3.6v.5H19z"/><path class="st2" d="M24.6 67.8c-1-.2-1.4-.9-1.2-2.1.2-1.2.9-1.7 1.8-1.6.8.1 1.2.6 1.1 1.2l-.5-.1c0-.4-.2-.7-.7-.7-.6-.1-1.1.3-1.2 1.3-.2.9.1 1.5.7 1.6.4.1.8-.1.9-.5l.5.1c-.1.6-.6.9-1.4.8M29.4 68.3l.2-3.1-1.2-.1v-.5l2.9.2v.5l-1.2-.1-.2 3.1zM34.8 64.7c1-.1 1.7.6 1.7 1.8.1 1.2-.5 1.9-1.5 1.9-1 .1-1.7-.6-1.7-1.8-.1-1.1.4-1.8 1.5-1.9m.1 3.3c.7 0 1.1-.6 1.1-1.5s-.5-1.4-1.2-1.4-1.1.6-1.1 1.5c.1 1 .5 1.5 1.2 1.4M38.7 64.4l1.3-.2c.8-.1 1.2.1 1.3.7.1.4-.1.8-.5.9.3 0 .5.1.6.4.1.3.2.7.4 1.2l-.5.1c-.2-.6-.3-1-.4-1.2-.1-.3-.3-.3-.8-.2l-.6.1.3 1.6-.5.2-.6-3.6zm2.1.7c-.1-.5-.4-.5-.8-.4l-.7.1.2 1.1.7-.1c.4-.2.6-.3.6-.7"/><path transform="rotate(75.024 44.107 65.13)" class="st2" d="M42.3 64.9h3.6v.5h-3.6z"/><path class="st2" d="M47.1 66.1l.2-3.9.5-.2 2.6 2.9-.5.2-.7-.7-1.5.6v1l-.6.1zm.6-3.5v1.9L49 64l-1.3-1.4z"/><path class="st3" d="M88.4 3.2h6.9l9.6 27.5h-6l-1.9-6H86.2L84 30.6h-5.5l9.9-27.4zm7.2 17L91.8 8.6l-4.2 11.6h8zM107.3 15.1c0-1.2 0-2.4-.2-3.7h5.3l.2 2.9C114 12 116 11 118.8 11c2.9 0 4.9 1.3 5.8 3.7 1.3-2.6 3.2-3.7 6.3-3.7 4.3 0 6.3 2.4 6.3 7.3v12.3h-5.5V19.1c0-2.7-.8-4-3.1-4-2.1 0-3.5 1.4-3.5 3.8v11.8h-5.5V19.1c0-2.7-.8-4-3.1-4-2.1 0-3.5 1.4-3.5 3.8v11.8h-5.5V15.1zM141.4 27.5V3.2h5.5v10.9c1.4-2 3.2-3 5.8-3 4.5 0 7.7 3.7 7.7 9.9s-3.3 10-7.8 10c-2.4 0-4.4-1.1-5.8-3.1l-.2 2.7h-5.5c.3-.9.3-2 .3-3.1m9.5-.2c2.4 0 3.9-2.2 3.9-6.2s-1.5-6.3-3.9-6.3-4.1 2.3-4.1 6.3c.1 4 1.7 6.2 4.1 6.2M181.6 26.9c0 1.2 0 2.4.2 3.7h-5.3l-.2-2.9c-1.5 2.3-3.4 3.3-6.2 3.3-4.3 0-6.3-2.4-6.3-7.3V11.5h5.5V23c0 2.7.8 4 3.1 4 2.1 0 3.5-1.4 3.5-3.7V11.5h5.5v15.4zM186 3.2h5.5v27.5H186zM207.2 28c-1.6 2.2-3.6 3.2-6.1 3.2-3.6 0-6.1-2.5-6.1-6.1 0-4.4 3.5-6.9 10.3-6.9h1.3v-.8c0-2.3-.8-3.4-2.7-3.4-1.6 0-2.5.8-2.6 2.7h-5.5c0-4 2.7-5.9 8.2-5.9 2.8 0 4.9.8 6.2 2 1.6 1.6 1.7 3.4 1.7 5.9v5.8c0 1.1.1 3 .3 5.8h-4.8c-.1-.3-.2-1.2-.2-2.3m-1.3-6.6c-3.7 0-5.5 1.3-5.5 3.4 0 1.4 1.1 2.5 2.7 2.5 2.2 0 3.5-1.7 3.5-4.9v-1h-.7zM216.2 15.1c0-1.2-.1-2.4-.2-3.7h5.3l.1 2.9c1.4-2.3 3.4-3.3 6.2-3.3 4.3 0 6.3 2.4 6.3 7.3v12.3h-5.5V19.1c0-2.7-.8-4-3.1-4-2.1 0-3.5 1.4-3.5 3.8v11.8h-5.5V15.1zM245.9 31.1c-5.2 0-8.6-3.8-8.6-10.3 0-6.1 3.4-9.8 9-9.8 4.5 0 7.4 2.6 7.4 7h-5.3c-.2-2.4-1-3.4-2.6-3.4-1.9 0-2.8 2-2.8 6.1 0 4.4.7 6.5 2.9 6.5 1.5 0 2.4-1.3 2.5-3.8h5.2c.1 4.9-2.8 7.7-7.7 7.7M264.9 31c-5.6 0-8.9-3.6-8.9-9.8 0-6.6 3.4-10.2 9.2-10.2 5.4 0 8.5 3.5 8.5 10v1.3h-12.4c0 3.4 1.2 5.1 3.5 5.1 1.8 0 2.9-.9 3.3-2.7h4.9c-.2 3.9-3.2 6.3-8.1 6.3m3.1-12.3c0-2.7-1.1-4.2-3.2-4.2-1.9 0-3.2 1.5-3.3 4.2h6.5z"/><path class="st1" d="M88.6 67.2L79 39.8h4.1L90.7 63l8.2-23.2h4L92.6 67.2zM105.9 39.8h4.1v3.9h-4.1v-3.9zm.3 8.3h3.5v19.1h-3.5V48.1zM122.2 67.7c-5.5 0-8.5-3.5-8.5-9.6 0-6.6 3.2-10.5 8.8-10.5 4.3 0 7.1 2.5 7.1 6.4v.1h-3.4c0-2.3-1.7-4-3.9-4-2.9 0-4.8 2.6-4.8 7.1 0 5.1 1.6 7.8 4.8 7.8 2.4 0 4.1-1.6 4.1-4.2h3.4c-.4 4.5-3 6.9-7.6 6.9M135 48.1v-3.9l3.5-1.2v5.1h4.3v2.5h-4.3v11.7c0 1.9.4 2.4 2.4 2.4.6 0 1.2-.1 1.8-.3v2.7c-1.1.3-2.1.5-2.8.5-3.4 0-4.9-1-4.9-4v-13h-3.2v-2.5h3.2zM154.1 47.7c5.9 0 9.4 3.6 9.4 9.8 0 6.4-3.6 10.2-9.8 10.2-5.7 0-9.2-3.7-9.2-9.7 0-6.4 3.7-10.3 9.6-10.3m-5.9 10.2c0 4.5 2.1 7.2 5.8 7.2 3.6 0 5.9-2.7 5.9-7.5 0-4.7-2.2-7.4-5.8-7.4-3.6 0-5.9 2.9-5.9 7.7M167.6 51.1c0-.6 0-1.7-.1-3h3.5l.1 3.7c.7-2.4 2.5-3.7 5.4-3.7.5 0 1 0 1.4.1v3.3c-.8-.2-1.4-.2-1.9-.2-3.1 0-4.9 1.8-4.9 5.2v10.8h-3.5V51.1zM180.8 39.8h4.1v3.9h-4.1v-3.9zm.3 8.3h3.5v19.1h-3.5V48.1zM201.3 67.2c-.2-.6-.3-1.6-.4-3-1 2.3-3.1 3.5-6.1 3.5-4 0-6.4-2.4-6.4-5.8 0-3.9 3.3-6.6 9-6.6h3.3V53c0-2.1-1.3-3.1-3.8-3.1-2.4 0-3.8 1.2-3.9 3.3h-3.4v-.3c0-3.4 2.5-5.2 7.1-5.2 5.5 0 7.6 1.9 7.6 6v11.8c0 .2 0 .8.2 1.8h-3.2zm-3.5-9.5c-3.9 0-5.8 1.6-5.8 3.9 0 1.8 1.5 3.2 3.6 3.2 3.3 0 5.1-1.8 5.1-5.2v-1.9h-2.9z"/></svg>